# xmcd CD database file
#
# Track frame offsets:
#	150
#	17854
#	40146
#	65996
#	81225
#	106942
#	130996
#	143418
#	159492
#	182180
#	201825
#	242594
#	260897
#	283904
#	311129
#	333112
#	351302
#
# Disc length: 4773 seconds
#
# Revision: 0
# Processed by: cddbd v1.5.2PL0 Copyright (c) Steve Scherf et al.
# Submitted via: CDex 1.51
#
DISCID=0712a311
DTITLE=Pearl Jam - Ten (Legacy Edition) cd2
DYEAR=2009
DGENRE=Jazz
TTITLE0=Onece Remixed
TTITLE1=Even Flow Remixed
TTITLE2=Alive Remixed
TTITLE3=Why Go Remixed
TTITLE4=Black Remixed
TTITLE5=eremy Remixed
TTITLE6=Oceans Remixed
TTITLE7=Porch Remixed
TTITLE8=Garden Remixed
TTITLE9=Pearl Jam - deep remixed
TTITLE10=Release Remixed
TTITLE11=Brothert (Bonus Track)
TTITLE12=Jjust A Girlt (Bonus Track)
TTITLE13=Breath And A Screamt (Bonus Track)
TTITLE14=State Of lLve And Trustt (Bonus Track)
TTITLE15=2000 Miles Bluest (Bonus Track)
TTITLE16=Evil Little Goa
EXTD=YEAR: 2009
EXTT0=
EXTT1=
EXTT2=
EXTT3=
EXTT4=
EXTT5=
EXTT6=
EXTT7=
EXTT8=
EXTT9=
EXTT10=
EXTT11=
EXTT12=
EXTT13=
EXTT14=
EXTT15=
EXTT16=
PLAYORDER=
